{
	"asset":{
		"generator":"Khronos glTF Blender I/O v4.5.48",
		"version":"2.0"
	},
	"scene":0,
	"scenes":[
		{
			"name":"Scene",
			"nodes":[
				0,
				1,
				2,
				3,
				4,
				5,
				6,
				7,
				8,
				9,
				10,
				11,
				12,
				13,
				14,
				15,
				16,
				17,
				18,
				19
			]
		}
	],
	"nodes":[
		{
			"mesh":0,
			"name":"ground"
		},
		{
			"mesh":1,
			"name":"Plane",
			"scale":[
				1.0706955194473267,
				1.0706955194473267,
				1.0706955194473267
			],
			"translation":[
				2.698479652404785,
				0,
				6.318774223327637
			]
		},
		{
			"mesh":2,
			"name":"outer_track.002"
		},
		{
			"mesh":3,
			"name":"outer_track.003"
		},
		{
			"mesh":4,
			"name":"outer_track.004",
			"rotation":[
				1,
				0,
				0,
				7.549790126404332e-08
			],
			"scale":[
				1.0000001111620804e-06,
				1.0000001111620804e-06,
				1.0000001111620804e-06
			]
		},
		{
			"mesh":5,
			"name":"outer_track.005",
			"rotation":[
				1,
				0,
				0,
				7.549790126404332e-08
			],
			"scale":[
				1.0000001111620804e-06,
				1.0000001111620804e-06,
				1.0000001111620804e-06
			]
		},
		{
			"mesh":6,
			"name":"outer_track.006",
			"rotation":[
				0.7071068286895752,
				0,
				0,
				0.7071068286895752
			],
			"scale":[
				0.0010000000474974513,
				0.0010000000474974513,
				0.0010000000474974513
			]
		},
		{
			"mesh":7,
			"name":"Plane.007"
		},
		{
			"mesh":8,
			"name":"Plane.001"
		},
		{
			"mesh":9,
			"name":"Plane.002"
		},
		{
			"mesh":10,
			"name":"Plane.003"
		},
		{
			"mesh":11,
			"name":"Plane.006"
		},
		{
			"mesh":12,
			"name":"Plane.008"
		},
		{
			"mesh":13,
			"name":"outer_track.007",
			"rotation":[
				0.7071068286895752,
				0,
				0,
				0.7071068286895752
			],
			"scale":[
				0.0010000000474974513,
				0.0010000000474974513,
				0.0010000000474974513
			]
		},
		{
			"mesh":14,
			"name":"outer_track.008",
			"rotation":[
				0.7071068286895752,
				0,
				0,
				0.7071068286895752
			],
			"scale":[
				0.0010000000474974513,
				0.0010000000474974513,
				0.0010000000474974513
			]
		},
		{
			"mesh":15,
			"name":"outer_track.009",
			"rotation":[
				0.7071068286895752,
				0,
				0,
				0.7071068286895752
			],
			"scale":[
				0.0010000000474974513,
				0.0010000000474974513,
				0.0010000000474974513
			]
		},
		{
			"mesh":16,
			"name":"outer_track.010"
		},
		{
			"mesh":17,
			"name":"outer_track.011"
		},
		{
			"mesh":18,
			"name":"outer_track.012"
		},
		{
			"mesh":19,
			"name":"outer_track.013"
		}
	],
	"materials":[
		{
			"alphaMode":"BLEND",
			"doubleSided":true,
			"name":"Material",
			"pbrMetallicRoughness":{
				"baseColorTexture":{
					"index":0
				},
				"metallicFactor":0
			}
		}
	],
	"meshes":[
		{
			"name":"Mesh.007",
			"primitives":[
				{
					"attributes":{
						"POSITION":0,
						"NORMAL":1,
						"TEXCOORD_0":2
					},
					"indices":3,
					"material":0
				}
			]
		},
		{
			"name":"Plane",
			"primitives":[
				{
					"attributes":{
						"POSITION":4,
						"NORMAL":5,
						"TEXCOORD_0":6
					},
					"indices":7,
					"material":0
				}
			]
		},
		{
			"name":"Mesh.001",
			"primitives":[
				{
					"attributes":{
						"POSITION":8,
						"NORMAL":9,
						"TEXCOORD_0":10
					},
					"indices":11,
					"material":0
				}
			]
		},
		{
			"name":"Mesh.002",
			"primitives":[
				{
					"attributes":{
						"POSITION":12,
						"NORMAL":13,
						"TEXCOORD_0":14
					},
					"indices":11,
					"material":0
				}
			]
		},
		{
			"name":"Mesh.003",
			"primitives":[
				{
					"attributes":{
						"POSITION":15,
						"NORMAL":16,
						"TEXCOORD_0":17
					},
					"indices":18,
					"material":0
				}
			]
		},
		{
			"name":"Mesh.004",
			"primitives":[
				{
					"attributes":{
						"POSITION":19,
						"NORMAL":20,
						"TEXCOORD_0":21
					},
					"indices":11,
					"material":0
				}
			]
		},
		{
			"name":"Mesh.005",
			"primitives":[
				{
					"attributes":{
						"POSITION":22,
						"NORMAL":23,
						"TEXCOORD_0":24
					},
					"indices":11,
					"material":0
				}
			]
		},
		{
			"name":"Plane.007",
			"primitives":[
				{
					"attributes":{
						"POSITION":25,
						"NORMAL":26,
						"TEXCOORD_0":27
					},
					"indices":28,
					"material":0
				}
			]
		},
		{
			"name":"Plane.010",
			"primitives":[
				{
					"attributes":{
						"POSITION":29,
						"NORMAL":30,
						"TEXCOORD_0":31
					},
					"indices":28,
					"material":0
				}
			]
		},
		{
			"name":"Plane.001",
			"primitives":[
				{
					"attributes":{
						"POSITION":32,
						"NORMAL":33,
						"TEXCOORD_0":34
					},
					"indices":35,
					"material":0
				}
			]
		},
		{
			"name":"Plane.002",
			"primitives":[
				{
					"attributes":{
						"POSITION":36,
						"NORMAL":37,
						"TEXCOORD_0":38
					},
					"indices":28,
					"material":0
				}
			]
		},
		{
			"name":"Plane.005",
			"primitives":[
				{
					"attributes":{
						"POSITION":39,
						"NORMAL":40,
						"TEXCOORD_0":41
					},
					"indices":35,
					"material":0
				}
			]
		},
		{
			"name":"Plane.006",
			"primitives":[
				{
					"attributes":{
						"POSITION":42,
						"NORMAL":43,
						"TEXCOORD_0":44
					},
					"indices":45,
					"material":0
				}
			]
		},
		{
			"name":"Mesh.008",
			"primitives":[
				{
					"attributes":{
						"POSITION":46,
						"NORMAL":47,
						"TEXCOORD_0":48
					},
					"indices":11,
					"material":0
				}
			]
		},
		{
			"name":"Mesh.009",
			"primitives":[
				{
					"attributes":{
						"POSITION":49,
						"NORMAL":50,
						"TEXCOORD_0":51
					},
					"indices":11,
					"material":0
				}
			]
		},
		{
			"name":"Mesh.010",
			"primitives":[
				{
					"attributes":{
						"POSITION":52,
						"NORMAL":53,
						"TEXCOORD_0":54
					},
					"indices":11,
					"material":0
				}
			]
		},
		{
			"name":"Mesh.006",
			"primitives":[
				{
					"attributes":{
						"POSITION":55,
						"NORMAL":56,
						"TEXCOORD_0":57
					},
					"indices":11,
					"material":0
				}
			]
		},
		{
			"name":"Mesh.011",
			"primitives":[
				{
					"attributes":{
						"POSITION":58,
						"NORMAL":59,
						"TEXCOORD_0":60
					},
					"indices":11,
					"material":0
				}
			]
		},
		{
			"name":"Mesh.012",
			"primitives":[
				{
					"attributes":{
						"POSITION":61,
						"NORMAL":62,
						"TEXCOORD_0":63
					},
					"indices":11,
					"material":0
				}
			]
		},
		{
			"name":"Mesh.013",
			"primitives":[
				{
					"attributes":{
						"POSITION":64,
						"NORMAL":65,
						"TEXCOORD_0":66
					},
					"indices":11,
					"material":0
				}
			]
		}
	],
	"textures":[
		{
			"sampler":0,
			"source":0
		}
	],
	"images":[
		{
			"mimeType":"image/png",
			"name":"ROAD_MISC",
			"uri":"ROAD_MISC.png"
		}
	],
	"accessors":[
		{
			"bufferView":0,
			"componentType":5126,
			"count":74,
			"max":[
				60.016204833984375,
				0.19210150837898254,
				26.790756225585938
			],
			"min":[
				-60.01216506958008,
				-0.19211208820343018,
				-25.527864456176758
			],
			"type":"VEC3"
		},
		{
			"bufferView":1,
			"componentType":5126,
			"count":74,
			"type":"VEC3"
		},
		{
			"bufferView":2,
			"componentType":5126,
			"count":74,
			"type":"VEC2"
		},
		{
			"bufferView":3,
			"componentType":5123,
			"count":258,
			"type":"SCALAR"
		},
		{
			"bufferView":4,
			"componentType":5126,
			"count":24,
			"max":[
				50.33185958862305,
				2.356180429458618,
				-10.113809585571289
			],
			"min":[
				-54.937355041503906,
				-0.42879223823547363,
				-10.113809585571289
			],
			"type":"VEC3"
		},
		{
			"bufferView":5,
			"componentType":5126,
			"count":24,
			"type":"VEC3"
		},
		{
			"bufferView":6,
			"componentType":5126,
			"count":24,
			"type":"VEC2"
		},
		{
			"bufferView":7,
			"componentType":5123,
			"count":36,
			"type":"SCALAR"
		},
		{
			"bufferView":8,
			"componentType":5126,
			"count":60,
			"max":[
				60.01417922973633,
				1.044232964515686,
				18.66166877746582
			],
			"min":[
				-60.01418685913086,
				-0.9557672739028931,
				18.661649703979492
			],
			"type":"VEC3"
		},
		{
			"bufferView":9,
			"componentType":5126,
			"count":60,
			"type":"VEC3"
		},
		{
			"bufferView":10,
			"componentType":5126,
			"count":60,
			"type":"VEC2"
		},
		{
			"bufferView":11,
			"componentType":5123,
			"count":90,
			"type":"SCALAR"
		},
		{
			"bufferView":12,
			"componentType":5126,
			"count":60,
			"max":[
				60.01417922973633,
				1.0442330837249756,
				2.8016810417175293
			],
			"min":[
				-60.01418685913086,
				-0.9557672142982483,
				2.801661491394043
			],
			"type":"VEC3"
		},
		{
			"bufferView":13,
			"componentType":5126,
			"count":60,
			"type":"VEC3"
		},
		{
			"bufferView":14,
			"componentType":5126,
			"count":60,
			"type":"VEC2"
		},
		{
			"bufferView":15,
			"componentType":5126,
			"count":76,
			"max":[
				60014.17578125,
				788.9921875,
				-0.000274658203125
			],
			"min":[
				-60014.18359375,
				788.9820556640625,
				-1101.1396484375
			],
			"type":"VEC3"
		},
		{
			"bufferView":16,
			"componentType":5126,
			"count":76,
			"type":"VEC3"
		},
		{
			"bufferView":17,
			"componentType":5126,
			"count":76,
			"type":"VEC2"
		},
		{
			"bufferView":18,
			"componentType":5123,
			"count":114,
			"type":"SCALAR"
		},
		{
			"bufferView":19,
			"componentType":5126,
			"count":60,
			"max":[
				60014.17578125,
				-2474.630859375,
				955.7669677734375
			],
			"min":[
				-60014.18359375,
				-2474.650390625,
				-1044.233154296875
			],
			"type":"VEC3"
		},
		{
			"bufferView":20,
			"componentType":5126,
			"count":60,
			"type":"VEC3"
		},
		{
			"bufferView":21,
			"componentType":5126,
			"count":60,
			"type":"VEC2"
		},
		{
			"bufferView":22,
			"componentType":5126,
			"count":60,
			"max":[
				60.01417922973633,
				0.7759408950805664,
				-3.7896461486816406
			],
			"min":[
				-60.01418685913086,
				-0.269436240196228,
				-3.7896671295166016
			],
			"type":"VEC3"
		},
		{
			"bufferView":23,
			"componentType":5126,
			"count":60,
			"type":"VEC3"
		},
		{
			"bufferView":24,
			"componentType":5126,
			"count":60,
			"type":"VEC2"
		},
		{
			"bufferView":25,
			"componentType":5126,
			"count":12,
			"max":[
				58.48645782470703,
				4.182826042175293,
				-13.745272636413574
			],
			"min":[
				-16.826171875,
				-0.13509082794189453,
				-13.745272636413574
			],
			"type":"VEC3"
		},
		{
			"bufferView":26,
			"componentType":5126,
			"count":12,
			"type":"VEC3"
		},
		{
			"bufferView":27,
			"componentType":5126,
			"count":12,
			"type":"VEC2"
		},
		{
			"bufferView":28,
			"componentType":5123,
			"count":18,
			"type":"SCALAR"
		},
		{
			"bufferView":29,
			"componentType":5126,
			"count":12,
			"max":[
				17.255598068237305,
				4.182826042175293,
				-16.09967803955078
			],
			"min":[
				-58.057029724121094,
				-0.13509082794189453,
				-16.09967803955078
			],
			"type":"VEC3"
		},
		{
			"bufferView":30,
			"componentType":5126,
			"count":12,
			"type":"VEC3"
		},
		{
			"bufferView":31,
			"componentType":5126,
			"count":12,
			"type":"VEC2"
		},
		{
			"bufferView":32,
			"componentType":5126,
			"count":16,
			"max":[
				60.01416778564453,
				4.963321685791016,
				-26.024513244628906
			],
			"min":[
				-60.014183044433594,
				-1.6881959438323975,
				-26.024518966674805
			],
			"type":"VEC3"
		},
		{
			"bufferView":33,
			"componentType":5126,
			"count":16,
			"type":"VEC3"
		},
		{
			"bufferView":34,
			"componentType":5126,
			"count":16,
			"type":"VEC2"
		},
		{
			"bufferView":35,
			"componentType":5123,
			"count":24,
			"type":"SCALAR"
		},
		{
			"bufferView":36,
			"componentType":5126,
			"count":12,
			"max":[
				41.294368743896484,
				4.6927103996276855,
				-23.551742553710938
			],
			"min":[
				-46.19392776489258,
				-0.3767397403717041,
				-23.551742553710938
			],
			"type":"VEC3"
		},
		{
			"bufferView":37,
			"componentType":5126,
			"count":12,
			"type":"VEC3"
		},
		{
			"bufferView":38,
			"componentType":5126,
			"count":12,
			"type":"VEC2"
		},
		{
			"bufferView":39,
			"componentType":5126,
			"count":16,
			"max":[
				50.25109100341797,
				4.6927103996276855,
				-20.45638656616211
			],
			"min":[
				-33.32524108886719,
				-0.376739501953125,
				-20.456388473510742
			],
			"type":"VEC3"
		},
		{
			"bufferView":40,
			"componentType":5126,
			"count":16,
			"type":"VEC3"
		},
		{
			"bufferView":41,
			"componentType":5126,
			"count":16,
			"type":"VEC2"
		},
		{
			"bufferView":42,
			"componentType":5126,
			"count":56,
			"max":[
				52.7843132019043,
				3.1979594230651855,
				-0.42830151319503784
			],
			"min":[
				-59.336952209472656,
				-0.06533229351043701,
				-0.4283016324043274
			],
			"type":"VEC3"
		},
		{
			"bufferView":43,
			"componentType":5126,
			"count":56,
			"type":"VEC3"
		},
		{
			"bufferView":44,
			"componentType":5126,
			"count":56,
			"type":"VEC2"
		},
		{
			"bufferView":45,
			"componentType":5123,
			"count":84,
			"type":"SCALAR"
		},
		{
			"bufferView":46,
			"componentType":5126,
			"count":60,
			"max":[
				60.01417922973633,
				1.0442330837249756,
				-16.711618423461914
			],
			"min":[
				-60.01418685913086,
				-0.9557672142982483,
				-16.711637496948242
			],
			"type":"VEC3"
		},
		{
			"bufferView":47,
			"componentType":5126,
			"count":60,
			"type":"VEC3"
		},
		{
			"bufferView":48,
			"componentType":5126,
			"count":60,
			"type":"VEC2"
		},
		{
			"bufferView":49,
			"componentType":5126,
			"count":60,
			"max":[
				60.01417922973633,
				1.458943247795105,
				-16.881423950195312
			],
			"min":[
				-60.01418685913086,
				-0.3875724971294403,
				-16.88144302368164
			],
			"type":"VEC3"
		},
		{
			"bufferView":50,
			"componentType":5126,
			"count":60,
			"type":"VEC3"
		},
		{
			"bufferView":51,
			"componentType":5126,
			"count":60,
			"type":"VEC2"
		},
		{
			"bufferView":52,
			"componentType":5126,
			"count":60,
			"max":[
				60.01417922973633,
				1.0442330837249756,
				-16.711618423461914
			],
			"min":[
				-60.01418685913086,
				-0.9557672142982483,
				-16.711637496948242
			],
			"type":"VEC3"
		},
		{
			"bufferView":53,
			"componentType":5126,
			"count":60,
			"type":"VEC3"
		},
		{
			"bufferView":54,
			"componentType":5126,
			"count":60,
			"type":"VEC2"
		},
		{
			"bufferView":55,
			"componentType":5126,
			"count":60,
			"max":[
				60.01417922973633,
				1.0442330837249756,
				-3.4327011108398438
			],
			"min":[
				-60.01418685913086,
				-0.9557672142982483,
				-3.43272066116333
			],
			"type":"VEC3"
		},
		{
			"bufferView":56,
			"componentType":5126,
			"count":60,
			"type":"VEC3"
		},
		{
			"bufferView":57,
			"componentType":5126,
			"count":60,
			"type":"VEC2"
		},
		{
			"bufferView":58,
			"componentType":5126,
			"count":60,
			"max":[
				60.01417922973633,
				1.0442330837249756,
				-16.47187614440918
			],
			"min":[
				-60.01418685913086,
				-0.9557672142982483,
				-16.471895217895508
			],
			"type":"VEC3"
		},
		{
			"bufferView":59,
			"componentType":5126,
			"count":60,
			"type":"VEC3"
		},
		{
			"bufferView":60,
			"componentType":5126,
			"count":60,
			"type":"VEC2"
		},
		{
			"bufferView":61,
			"componentType":5126,
			"count":60,
			"max":[
				60.01417541503906,
				0.8828129768371582,
				-17.647560119628906
			],
			"min":[
				-60.014190673828125,
				-0.10494714975357056,
				-17.647581100463867
			],
			"type":"VEC3"
		},
		{
			"bufferView":62,
			"componentType":5126,
			"count":60,
			"type":"VEC3"
		},
		{
			"bufferView":63,
			"componentType":5126,
			"count":60,
			"type":"VEC2"
		},
		{
			"bufferView":64,
			"componentType":5126,
			"count":60,
			"max":[
				60.01417541503906,
				0.7914922833442688,
				-2.8151938915252686
			],
			"min":[
				-60.014190673828125,
				-0.16093534231185913,
				-2.815213441848755
			],
			"type":"VEC3"
		},
		{
			"bufferView":65,
			"componentType":5126,
			"count":60,
			"type":"VEC3"
		},
		{
			"bufferView":66,
			"componentType":5126,
			"count":60,
			"type":"VEC2"
		}
	],
	"bufferViews":[
		{
			"buffer":0,
			"byteLength":888,
			"byteOffset":0,
			"target":34962
		},
		{
			"buffer":0,
			"byteLength":888,
			"byteOffset":888,
			"target":34962
		},
		{
			"buffer":0,
			"byteLength":592,
			"byteOffset":1776,
			"target":34962
		},
		{
			"buffer":0,
			"byteLength":516,
			"byteOffset":2368,
			"target":34963
		},
		{
			"buffer":0,
			"byteLength":288,
			"byteOffset":2884,
			"target":34962
		},
		{
			"buffer":0,
			"byteLength":288,
			"byteOffset":3172,
			"target":34962
		},
		{
			"buffer":0,
			"byteLength":192,
			"byteOffset":3460,
			"target":34962
		},
		{
			"buffer":0,
			"byteLength":72,
			"byteOffset":3652,
			"target":34963
		},
		{
			"buffer":0,
			"byteLength":720,
			"byteOffset":3724,
			"target":34962
		},
		{
			"buffer":0,
			"byteLength":720,
			"byteOffset":4444,
			"target":34962
		},
		{
			"buffer":0,
			"byteLength":480,
			"byteOffset":5164,
			"target":34962
		},
		{
			"buffer":0,
			"byteLength":180,
			"byteOffset":5644,
			"target":34963
		},
		{
			"buffer":0,
			"byteLength":720,
			"byteOffset":5824,
			"target":34962
		},
		{
			"buffer":0,
			"byteLength":720,
			"byteOffset":6544,
			"target":34962
		},
		{
			"buffer":0,
			"byteLength":480,
			"byteOffset":7264,
			"target":34962
		},
		{
			"buffer":0,
			"byteLength":912,
			"byteOffset":7744,
			"target":34962
		},
		{
			"buffer":0,
			"byteLength":912,
			"byteOffset":8656,
			"target":34962
		},
		{
			"buffer":0,
			"byteLength":608,
			"byteOffset":9568,
			"target":34962
		},
		{
			"buffer":0,
			"byteLength":228,
			"byteOffset":10176,
			"target":34963
		},
		{
			"buffer":0,
			"byteLength":720,
			"byteOffset":10404,
			"target":34962
		},
		{
			"buffer":0,
			"byteLength":720,
			"byteOffset":11124,
			"target":34962
		},
		{
			"buffer":0,
			"byteLength":480,
			"byteOffset":11844,
			"target":34962
		},
		{
			"buffer":0,
			"byteLength":720,
			"byteOffset":12324,
			"target":34962
		},
		{
			"buffer":0,
			"byteLength":720,
			"byteOffset":13044,
			"target":34962
		},
		{
			"buffer":0,
			"byteLength":480,
			"byteOffset":13764,
			"target":34962
		},
		{
			"buffer":0,
			"byteLength":144,
			"byteOffset":14244,
			"target":34962
		},
		{
			"buffer":0,
			"byteLength":144,
			"byteOffset":14388,
			"target":34962
		},
		{
			"buffer":0,
			"byteLength":96,
			"byteOffset":14532,
			"target":34962
		},
		{
			"buffer":0,
			"byteLength":36,
			"byteOffset":14628,
			"target":34963
		},
		{
			"buffer":0,
			"byteLength":144,
			"byteOffset":14664,
			"target":34962
		},
		{
			"buffer":0,
			"byteLength":144,
			"byteOffset":14808,
			"target":34962
		},
		{
			"buffer":0,
			"byteLength":96,
			"byteOffset":14952,
			"target":34962
		},
		{
			"buffer":0,
			"byteLength":192,
			"byteOffset":15048,
			"target":34962
		},
		{
			"buffer":0,
			"byteLength":192,
			"byteOffset":15240,
			"target":34962
		},
		{
			"buffer":0,
			"byteLength":128,
			"byteOffset":15432,
			"target":34962
		},
		{
			"buffer":0,
			"byteLength":48,
			"byteOffset":15560,
			"target":34963
		},
		{
			"buffer":0,
			"byteLength":144,
			"byteOffset":15608,
			"target":34962
		},
		{
			"buffer":0,
			"byteLength":144,
			"byteOffset":15752,
			"target":34962
		},
		{
			"buffer":0,
			"byteLength":96,
			"byteOffset":15896,
			"target":34962
		},
		{
			"buffer":0,
			"byteLength":192,
			"byteOffset":15992,
			"target":34962
		},
		{
			"buffer":0,
			"byteLength":192,
			"byteOffset":16184,
			"target":34962
		},
		{
			"buffer":0,
			"byteLength":128,
			"byteOffset":16376,
			"target":34962
		},
		{
			"buffer":0,
			"byteLength":672,
			"byteOffset":16504,
			"target":34962
		},
		{
			"buffer":0,
			"byteLength":672,
			"byteOffset":17176,
			"target":34962
		},
		{
			"buffer":0,
			"byteLength":448,
			"byteOffset":17848,
			"target":34962
		},
		{
			"buffer":0,
			"byteLength":168,
			"byteOffset":18296,
			"target":34963
		},
		{
			"buffer":0,
			"byteLength":720,
			"byteOffset":18464,
			"target":34962
		},
		{
			"buffer":0,
			"byteLength":720,
			"byteOffset":19184,
			"target":34962
		},
		{
			"buffer":0,
			"byteLength":480,
			"byteOffset":19904,
			"target":34962
		},
		{
			"buffer":0,
			"byteLength":720,
			"byteOffset":20384,
			"target":34962
		},
		{
			"buffer":0,
			"byteLength":720,
			"byteOffset":21104,
			"target":34962
		},
		{
			"buffer":0,
			"byteLength":480,
			"byteOffset":21824,
			"target":34962
		},
		{
			"buffer":0,
			"byteLength":720,
			"byteOffset":22304,
			"target":34962
		},
		{
			"buffer":0,
			"byteLength":720,
			"byteOffset":23024,
			"target":34962
		},
		{
			"buffer":0,
			"byteLength":480,
			"byteOffset":23744,
			"target":34962
		},
		{
			"buffer":0,
			"byteLength":720,
			"byteOffset":24224,
			"target":34962
		},
		{
			"buffer":0,
			"byteLength":720,
			"byteOffset":24944,
			"target":34962
		},
		{
			"buffer":0,
			"byteLength":480,
			"byteOffset":25664,
			"target":34962
		},
		{
			"buffer":0,
			"byteLength":720,
			"byteOffset":26144,
			"target":34962
		},
		{
			"buffer":0,
			"byteLength":720,
			"byteOffset":26864,
			"target":34962
		},
		{
			"buffer":0,
			"byteLength":480,
			"byteOffset":27584,
			"target":34962
		},
		{
			"buffer":0,
			"byteLength":720,
			"byteOffset":28064,
			"target":34962
		},
		{
			"buffer":0,
			"byteLength":720,
			"byteOffset":28784,
			"target":34962
		},
		{
			"buffer":0,
			"byteLength":480,
			"byteOffset":29504,
			"target":34962
		},
		{
			"buffer":0,
			"byteLength":720,
			"byteOffset":29984,
			"target":34962
		},
		{
			"buffer":0,
			"byteLength":720,
			"byteOffset":30704,
			"target":34962
		},
		{
			"buffer":0,
			"byteLength":480,
			"byteOffset":31424,
			"target":34962
		}
	],
	"samplers":[
		{
			"magFilter":9729,
			"minFilter":9987
		}
	],
	"buffers":[
		{
			"byteLength":31904,
			"uri":"road_scaled_0913.bin"
		}
	]
}
